<svg version="1.1" id="Layer_1" xmlns="http://www.w3.org/2000/svg" xmlns:xlink="http://www.w3.org/1999/xlink" x="0px" y="0px"
	 width="100%" viewBox="0 0 1000 1000" enable-background="new 0 0 1000 1000" xml:space="preserve">
<path fill="#000000" opacity="1.000000" stroke="none" 
	d="
M480.000000,1001.000000 
	C320.000000,1001.000000 160.500000,1001.000000 1.000000,1001.000000 
	C1.000000,667.666687 1.000000,334.333344 1.000000,1.000000 
	C334.333344,1.000000 667.666687,1.000000 1001.000000,1.000000 
	C1001.000000,334.333344 1001.000000,667.666687 1001.000000,1001.000000 
	C827.500000,1001.000000 654.000000,1001.000000 480.000000,1001.000000 
M619.970032,370.054138 
	C619.924683,360.048431 619.879395,350.042755 619.659424,339.244415 
	C617.808899,338.829620 615.958679,338.053802 614.107788,338.052124 
	C545.285522,337.990295 476.463165,338.000000 407.640839,338.000000 
	C405.874969,338.000000 404.109100,338.000000 402.384705,338.000000 
	C402.384705,451.358246 402.384705,564.059692 402.384705,676.721802 
	C429.696716,676.721802 456.623596,676.721802 484.119904,676.721802 
	C484.119904,633.401733 484.119904,590.355835 484.119904,546.743896 
	C523.068604,546.743896 561.448792,546.743896 599.691772,546.743896 
	C599.691772,523.909119 599.691772,501.647766 599.691772,479.000122 
	C580.255310,479.000122 561.124512,479.000092 541.993652,479.000092 
	C522.744324,479.000092 503.494934,479.000122 484.270630,479.000122 
	C484.270630,454.318329 484.270630,430.391052 484.270630,405.999573 
	C487.158752,405.999573 489.783295,405.999573 492.407867,405.999573 
	C533.068054,405.999512 573.728394,405.940338 614.388062,406.085602 
	C618.726624,406.101105 620.249939,404.927795 620.091125,400.462128 
	C619.741882,390.644196 619.889160,380.808594 619.970032,370.054138 
M281.500000,677.000000 
	C295.919769,677.000000 310.339508,677.000000 324.734009,677.000000 
	C324.734009,563.650024 324.734009,451.054626 324.734009,338.342102 
	C297.418793,338.342102 270.370636,338.342102 242.746307,338.342102 
	C242.746307,381.398041 242.746307,424.114838 242.746307,466.687012 
	C205.571289,466.687012 168.975067,466.687012 131.803711,466.687012 
	C131.803711,423.660492 131.803711,380.943695 131.803711,338.289551 
	C104.296211,338.289551 77.367371,338.289551 50.361248,338.289551 
	C50.361248,451.290802 50.361248,564.002258 50.361248,676.741455 
	C77.652016,676.741455 104.581268,676.741455 132.086792,676.741455 
	C132.086792,630.437134 132.086792,584.387329 132.086792,538.406372 
	C169.380142,538.406372 206.094254,538.406372 243.205536,538.406372 
	C243.205536,584.742065 243.205536,630.672424 243.205536,677.000000 
	C255.901382,677.000000 268.200684,677.000000 281.500000,677.000000 
M821.500000,538.000000 
	C837.585510,538.000000 853.670959,538.000000 870.146484,538.000000 
	C870.146484,584.682739 870.146484,630.613098 870.146484,676.651855 
	C897.595703,676.651855 924.642883,676.651855 951.586060,676.651855 
	C951.586060,563.590027 951.586060,450.876801 951.586060,338.313110 
	C924.240540,338.313110 897.309692,338.313110 869.804321,338.313110 
	C869.804321,381.339508 869.804321,424.056305 869.804321,466.716003 
	C832.629578,466.716003 796.033569,466.716003 758.861694,466.716003 
	C758.861694,423.718964 758.861694,381.002167 758.861694,338.260559 
	C731.354614,338.260559 704.426025,338.260559 677.332214,338.260559 
	C677.332214,451.232666 677.332214,563.944092 677.332214,676.593628 
	C704.713806,676.593628 731.761597,676.593628 759.205688,676.593628 
	C759.205688,630.258118 759.205688,584.327759 759.205688,538.000000 
	C779.902771,538.000000 800.201416,538.000000 821.500000,538.000000 
z"/>
<path fill="#3CC47C" opacity="1.000000" stroke="none" 
	d="
M281.000000,677.000000 
	C268.200684,677.000000 255.901382,677.000000 243.205536,677.000000 
	C243.205536,630.672424 243.205536,584.742065 243.205536,538.406372 
	C206.094254,538.406372 169.380142,538.406372 132.086792,538.406372 
	C132.086792,584.387329 132.086792,630.437134 132.086792,676.741455 
	C104.581268,676.741455 77.652016,676.741455 50.361248,676.741455 
	C50.361248,564.002258 50.361248,451.290802 50.361248,338.289551 
	C77.367371,338.289551 104.296211,338.289551 131.803711,338.289551 
	C131.803711,380.943695 131.803711,423.660492 131.803711,466.687012 
	C168.975067,466.687012 205.571289,466.687012 242.746307,466.687012 
	C242.746307,424.114838 242.746307,381.398041 242.746307,338.342102 
	C270.370636,338.342102 297.418793,338.342102 324.734009,338.342102 
	C324.734009,451.054626 324.734009,563.650024 324.734009,677.000000 
	C310.339508,677.000000 295.919769,677.000000 281.000000,677.000000 
z"/>
<path fill="#3CC47C" opacity="1.000000" stroke="none" 
	d="
M821.000000,538.000000 
	C800.201416,538.000000 779.902771,538.000000 759.205688,538.000000 
	C759.205688,584.327759 759.205688,630.258118 759.205688,676.593628 
	C731.761597,676.593628 704.713806,676.593628 677.332214,676.593628 
	C677.332214,563.944092 677.332214,451.232666 677.332214,338.260559 
	C704.426025,338.260559 731.354614,338.260559 758.861694,338.260559 
	C758.861694,381.002167 758.861694,423.718964 758.861694,466.716003 
	C796.033569,466.716003 832.629578,466.716003 869.804321,466.716003 
	C869.804321,424.056305 869.804321,381.339508 869.804321,338.313110 
	C897.309692,338.313110 924.240540,338.313110 951.586060,338.313110 
	C951.586060,450.876801 951.586060,563.590027 951.586060,676.651855 
	C924.642883,676.651855 897.595703,676.651855 870.146484,676.651855 
	C870.146484,630.613098 870.146484,584.682739 870.146484,538.000000 
	C853.670959,538.000000 837.585510,538.000000 821.000000,538.000000 
z"/>
<path fill="#3CC47C" opacity="1.000000" stroke="none" 
	d="
M619.833740,370.980225 
	C619.889160,380.808594 619.741882,390.644196 620.091125,400.462128 
	C620.249939,404.927795 618.726624,406.101105 614.388062,406.085602 
	C573.728394,405.940338 533.068054,405.999512 492.407867,405.999573 
	C489.783295,405.999573 487.158752,405.999573 484.270630,405.999573 
	C484.270630,430.391052 484.270630,454.318329 484.270630,479.000122 
	C503.494934,479.000122 522.744324,479.000092 541.993652,479.000092 
	C561.124512,479.000092 580.255310,479.000122 599.691772,479.000122 
	C599.691772,501.647766 599.691772,523.909119 599.691772,546.743896 
	C561.448792,546.743896 523.068604,546.743896 484.119904,546.743896 
	C484.119904,590.355835 484.119904,633.401733 484.119904,676.721802 
	C456.623596,676.721802 429.696716,676.721802 402.384705,676.721802 
	C402.384705,564.059692 402.384705,451.358246 402.384705,338.000000 
	C404.109100,338.000000 405.874969,338.000000 407.640839,338.000000 
	C476.463165,338.000000 545.285522,337.990295 614.107788,338.052124 
	C615.958679,338.053802 617.808899,338.829620 619.595215,340.019592 
	C619.631958,350.856598 619.732849,360.918427 619.833740,370.980225 
z"/>
<path fill="#44CC77" opacity="1.000000" stroke="none" 
	d="
M619.901855,370.517181 
	C619.732849,360.918427 619.631958,350.856598 619.682556,340.415924 
	C619.879395,350.042755 619.924683,360.048431 619.901855,370.517181 
z"/>
</svg>