<svg version="1.1" id="Layer_1" xmlns="http://www.w3.org/2000/svg" xmlns:xlink="http://www.w3.org/1999/xlink" x="0px" y="0px"
	 width="100%" viewBox="0 0 1000 1000" enable-background="new 0 0 1000 1000" xml:space="preserve">
<path fill="#000000" opacity="1.000000" stroke="none" 
	d="
M443.000000,1001.000000 
	C295.333344,1001.000000 148.166672,1001.000000 1.000000,1001.000000 
	C1.000000,667.666687 1.000000,334.333344 1.000000,1.000000 
	C334.333344,1.000000 667.666687,1.000000 1001.000000,1.000000 
	C1001.000000,334.333344 1001.000000,667.666687 1001.000000,1001.000000 
	C815.166687,1001.000000 629.333313,1001.000000 443.000000,1001.000000 
M363.000000,636.500000 
	C363.000000,537.085510 363.000000,437.671051 363.000000,338.272339 
	C335.654297,338.272339 309.058228,338.272339 281.886047,338.272339 
	C281.886047,381.257111 281.886047,423.973846 281.886047,466.579163 
	C244.593689,466.579163 207.880844,466.579163 170.769318,466.579163 
	C170.769318,423.562775 170.769318,380.966339 170.769318,338.391510 
	C143.317154,338.391510 116.269554,338.391510 89.286514,338.391510 
	C89.286514,451.377411 89.286514,563.971680 89.286514,676.638794 
	C116.621788,676.638794 143.668991,676.638794 171.114807,676.638794 
	C171.114807,630.348999 171.114807,584.418701 171.114807,538.331970 
	C208.230240,538.331970 244.943771,538.331970 282.233826,538.331970 
	C282.233826,584.710876 282.233826,630.760742 282.233826,676.696838 
	C309.408844,676.696838 336.005310,676.696838 363.000000,676.696838 
	C363.000000,663.431580 363.000000,650.465759 363.000000,636.500000 
M896.487549,498.992493 
	C882.443176,489.045807 866.195801,483.689911 850.572205,477.060852 
	C831.349976,468.904907 811.933105,461.199127 792.826477,452.785309 
	C788.166870,450.733398 783.431274,447.409668 780.378296,443.412292 
	C769.131104,428.685852 776.427673,412.036224 792.618103,406.130463 
	C802.638916,402.475159 813.067993,401.312103 823.994507,402.803528 
	C839.648376,404.940125 854.118896,409.776825 867.601013,417.867096 
	C872.760498,420.963196 877.986389,423.948700 883.605164,427.231842 
	C897.827332,409.451508 912.023499,391.703613 926.196411,373.984863 
	C924.786011,372.864441 923.800964,371.998840 922.734924,371.248138 
	C913.122375,364.478516 903.922302,356.988281 893.775024,351.143951 
	C877.800903,341.943695 860.327942,336.713715 842.030029,333.780457 
	C825.013672,331.052643 808.004761,331.107880 791.147766,333.288177 
	C774.586121,335.430237 758.734741,340.879700 744.222473,349.412170 
	C726.875732,359.611145 712.614258,373.120880 703.100464,391.000671 
	C693.096619,409.801575 690.716003,429.900970 693.929871,450.899933 
	C697.820312,476.318909 710.722839,496.188995 731.305176,510.861084 
	C740.398682,517.343384 750.629944,522.398926 760.772095,527.199158 
	C774.325806,533.614136 788.352295,539.022095 802.068848,545.103577 
	C814.307495,550.529724 826.514954,556.052124 838.519287,561.971863 
	C846.902527,566.105835 851.577759,573.284668 851.942688,582.700195 
	C852.459656,596.037476 843.962952,606.289856 830.334290,610.036804 
	C813.343750,614.708191 796.467529,613.426392 779.720764,609.267517 
	C760.310608,604.447083 742.279358,596.599915 726.864563,583.445923 
	C724.318115,581.272949 721.471191,579.808411 719.218262,584.199707 
	C718.336975,585.917419 716.871765,587.343567 715.627075,588.865479 
	C703.476074,603.723206 691.315430,618.573059 678.808716,633.851318 
	C684.130371,638.293884 689.038635,642.668884 694.232605,646.673462 
	C707.923279,657.229309 722.876038,665.619141 739.126038,671.525635 
	C753.741333,676.837891 768.662781,681.408447 784.310242,681.900635 
	C800.493042,682.409790 816.825623,683.190247 832.873108,681.615356 
	C850.467407,679.888672 867.189026,673.825562 882.773071,665.072510 
	C900.418701,655.161377 914.391357,641.555603 923.994263,623.757263 
	C936.279785,600.986877 938.558411,576.828552 932.998413,551.744019 
	C928.058533,529.456970 915.537476,512.416931 896.487549,498.992493 
M522.998535,673.290649 
	C522.998535,631.347351 522.998535,589.404053 522.998535,546.886719 
	C561.589478,546.886719 599.639221,546.886719 637.580933,546.886719 
	C637.580933,523.927490 637.580933,501.547028 637.580933,478.772339 
	C599.233521,478.772339 561.304016,478.772339 523.387268,478.772339 
	C523.387268,454.322357 523.387268,430.275177 523.387268,405.833069 
	C568.369507,405.833069 612.965515,405.833069 657.644104,405.833069 
	C657.644104,383.051880 657.644104,360.671692 657.644104,338.249939 
	C585.360779,338.249939 513.434021,338.249939 441.317902,338.249939 
	C441.317902,451.209503 441.317902,563.918945 441.317902,676.986572 
	C467.935364,676.986572 494.236755,677.011353 520.537292,676.871521 
	C521.360779,676.867126 522.175171,675.161743 522.998535,673.290649 
z"/>
<path fill="#3CC47C" opacity="1.000000" stroke="none" 
	d="
M363.000000,637.000000 
	C363.000000,650.465759 363.000000,663.431580 363.000000,676.696838 
	C336.005310,676.696838 309.408844,676.696838 282.233826,676.696838 
	C282.233826,630.760742 282.233826,584.710876 282.233826,538.331970 
	C244.943771,538.331970 208.230240,538.331970 171.114807,538.331970 
	C171.114807,584.418701 171.114807,630.348999 171.114807,676.638794 
	C143.668991,676.638794 116.621788,676.638794 89.286514,676.638794 
	C89.286514,563.971680 89.286514,451.377411 89.286514,338.391510 
	C116.269554,338.391510 143.317154,338.391510 170.769318,338.391510 
	C170.769318,380.966339 170.769318,423.562775 170.769318,466.579163 
	C207.880844,466.579163 244.593689,466.579163 281.886047,466.579163 
	C281.886047,423.973846 281.886047,381.257111 281.886047,338.272339 
	C309.058228,338.272339 335.654297,338.272339 363.000000,338.272339 
	C363.000000,437.671051 363.000000,537.085510 363.000000,637.000000 
z"/>
<path fill="#3CC47C" opacity="1.000000" stroke="none" 
	d="
M896.754272,499.241974 
	C915.537476,512.416931 928.058533,529.456970 932.998413,551.744019 
	C938.558411,576.828552 936.279785,600.986877 923.994263,623.757263 
	C914.391357,641.555603 900.418701,655.161377 882.773071,665.072510 
	C867.189026,673.825562 850.467407,679.888672 832.873108,681.615356 
	C816.825623,683.190247 800.493042,682.409790 784.310242,681.900635 
	C768.662781,681.408447 753.741333,676.837891 739.126038,671.525635 
	C722.876038,665.619141 707.923279,657.229309 694.232605,646.673462 
	C689.038635,642.668884 684.130371,638.293884 678.808716,633.851318 
	C691.315430,618.573059 703.476074,603.723206 715.627075,588.865479 
	C716.871765,587.343567 718.336975,585.917419 719.218262,584.199707 
	C721.471191,579.808411 724.318115,581.272949 726.864563,583.445923 
	C742.279358,596.599915 760.310608,604.447083 779.720764,609.267517 
	C796.467529,613.426392 813.343750,614.708191 830.334290,610.036804 
	C843.962952,606.289856 852.459656,596.037476 851.942688,582.700195 
	C851.577759,573.284668 846.902527,566.105835 838.519287,561.971863 
	C826.514954,556.052124 814.307495,550.529724 802.068848,545.103577 
	C788.352295,539.022095 774.325806,533.614136 760.772095,527.199158 
	C750.629944,522.398926 740.398682,517.343384 731.305176,510.861084 
	C710.722839,496.188995 697.820312,476.318909 693.929871,450.899933 
	C690.716003,429.900970 693.096619,409.801575 703.100464,391.000671 
	C712.614258,373.120880 726.875732,359.611145 744.222473,349.412170 
	C758.734741,340.879700 774.586121,335.430237 791.147766,333.288177 
	C808.004761,331.107880 825.013672,331.052643 842.030029,333.780457 
	C860.327942,336.713715 877.800903,341.943695 893.775024,351.143951 
	C903.922302,356.988281 913.122375,364.478516 922.734924,371.248138 
	C923.800964,371.998840 924.786011,372.864441 926.196411,373.984863 
	C912.023499,391.703613 897.827332,409.451508 883.605164,427.231842 
	C877.986389,423.948700 872.760498,420.963196 867.601013,417.867096 
	C854.118896,409.776825 839.648376,404.940125 823.994507,402.803528 
	C813.067993,401.312103 802.638916,402.475159 792.618103,406.130463 
	C776.427673,412.036224 769.131104,428.685852 780.378296,443.412292 
	C783.431274,447.409668 788.166870,450.733398 792.826477,452.785309 
	C811.933105,461.199127 831.349976,468.904907 850.572205,477.060852 
	C866.195801,483.689911 882.443176,489.045807 896.754272,499.241974 
z"/>
<path fill="#3CC47C" opacity="1.000000" stroke="none" 
	d="
M522.996155,673.770020 
	C522.175171,675.161743 521.360779,676.867126 520.537292,676.871521 
	C494.236755,677.011353 467.935364,676.986572 441.317902,676.986572 
	C441.317902,563.918945 441.317902,451.209503 441.317902,338.249939 
	C513.434021,338.249939 585.360779,338.249939 657.644104,338.249939 
	C657.644104,360.671692 657.644104,383.051880 657.644104,405.833069 
	C612.965515,405.833069 568.369507,405.833069 523.387268,405.833069 
	C523.387268,430.275177 523.387268,454.322357 523.387268,478.772339 
	C561.304016,478.772339 599.233521,478.772339 637.580933,478.772339 
	C637.580933,501.547028 637.580933,523.927490 637.580933,546.886719 
	C599.639221,546.886719 561.589478,546.886719 522.998535,546.886719 
	C522.998535,589.404053 522.998535,631.347351 522.996155,673.770020 
z"/>
</svg>